<svg xmlns="http://www.w3.org/2000/svg" width="106.525" height="50"><path d="M53.008 38.764c-5.888.625-10.588 2.688-17.3 4.351a23.014 23.014 0 0 1-3.979 4.819c-.159-1.1-.451-2.585-.708-3.812q-2.58.468-5.187.755c-6.986.772-14.407-.048-21.718-8.839-10.691-12.856.743-38.876 19.431-33.6 7.57 2.139 6.78 13.224-5.858 15.259 16.376-4.9 6.219-19.542-5.719-10.5-3.813 3.171-9.217 8.049-7.208 20.708 0 0 1.322 10.611 14.691 13.355 0 0 4.344 1.186 13.175-1.245 4.44-5.125 9.919-18.065 9.919-18.065a2.079 2.079 0 0 1 .683.153c-2.027 12.444 14.346 6.1 7.974-1.544-1.641-1.963-6.351-1.993-9 .122a7.275 7.275 0 0 0-2.839 4.7c-1.641-5.254 5.321-10.534 11.805-7.307 4.235 2.107 5.085 9.428-.772 13.141a3.731 3.731 0 0 0 3.68-1.438c.161 1-2.455 2.5-4.537 2.657-3.846.29-5.763-.861-6.719-2.015a4.481 4.481 0 0 1-.965-2.06l-.35.98a49.228 49.228 0 0 1-3.031 8.736q.395-.152.8-.311c13.293-5.268 25.993-4.274 31.2-1.341 0 0-3.047 5.907 1.829 7.363s6.806-.827 6.806-.827L74 50s-3.842-11.693-21-11.236zm20.849 4.247c-5.473-.552-3.6-5.782.053-8.57a28.166 28.166 0 0 1 6.89-3.707c2.764-.965 3.7-1.367 4.748-2.172 1.351-1.042 2.116-2.341 2.758-5.044 0 0-5.01 8.1-10.071 4.931-5.2-3.254 1.29-13.114 1.84-13.044l1.188.15s-4.832 5.867-2.463 10.272 10.824-1.371 10.449-9.672a1.429 1.429 0 0 1 .927-.079c.29.074-.832 8.5-1.75 10.919l5.019-3.888a153.68 153.68 0 0 0 1.534-1.215c-2.42 3.359-3.9 3.571-6.925 6.881-2.876 5.493-5.185 14.292-13.063 14.293a11.36 11.36 0 0 1-1.14-.06zm6.633-9.974c-2.715 1.313-4.592 2.34-5.681 4.156-3.282 5.467 4.73 2.828 10-6.241-1.59.911-3.072 1.481-4.325 2.081zM65.18 20.431c-5.087-1.255-9.725 10.918-10.135 11.1a3.636 3.636 0 0 1-.847.247c7.929-14.9 4.917-24.54 4.917-24.54l5.547-5.309c2.782 6.358-4.087 18.946-4.089 18.946 3.789-3.427 7.489-2.22 8.712-.386 2.333 3.5-2.413 9.858-2.427 10.986-.013 1.486 2.855-.994 4.593-3.34.228-.341-1.53 4.236-4.078 5a4.211 4.211 0 0 1-.78.083c-4.581 0 5.924-11.379-1.414-12.784zM28.1 32.756c-4.222-.529-5.566-6.034-4.339-8.814-.1-2.992.822-4.812 2.328-6.046 1.177-.965.63-.2.347.262-1.5 2.467-3.224 5.974-1.474 3.85a8.621 8.621 0 0 1 6.932-3.531c6.361.251 6.058 4.647 1.844 7.621a6.585 6.585 0 0 1-7.819.128c-.725 1.931 1.285 5.784 5.415 4.669a11.257 11.257 0 0 0 6.234-4.749c.252-.1-.424 1.615-1.919 3.333a8.848 8.848 0 0 1-6.585 3.34 7.975 7.975 0 0 1-.964-.063zm-1.6-9.148s-1.448 1.969 2.26 2.606a6.268 6.268 0 0 0 5.715-1.958c1.931-2.517.254-3.958-2.138-3.958a6.822 6.822 0 0 0-5.837 3.31zM12 21.405c.071-.566-.648-1.268-2.363-.068 0 0 3.6-4.5 5.268-3.023 0 0 .57.264.41 2.009s-.386 3.442-.386 3.442 3.629-6.139 6.706-4.094S21.73 24.9 18 25.2c1.39-.956 3.185-2.189 1.622-3.254a1.448 1.448 0 0 0-1.206-.025c-.32.145-3.529 2.172-3.7 3.493l-.758 5.858a7.357 7.357 0 0 1-3.378 1.39zm93.09-13.917V2.251h-.045l-2.183 5.237h-1.052l-2.084-5.237h-.045v5.237h-1.392V0h1.9l2.194 5.4h.045L104.7 0h1.821v7.488zm-11.334 0V1.233h-2.16V0h5.848v1.233h-2.22v6.255z" fill="#d20482"></path></svg>